<?xml version="1.0" encoding="UTF-8"?>
<svg id="logo-wordmark-brand_svg__Layer_1" xmlns="http://www.w3.org/2000/svg" version="1.1" viewBox="0 0 2300 400.8">
  <!-- Generator: Adobe Illustrator 29.5.1, SVG Export Plug-In . SVG Version: 2.1.0 Build 141)  -->
  <defs>
    <style>
      .st0 {
        fill: #fff;
      }
    </style>
  </defs>
  <g>
    <path class="st0" d="M794,99.5l-43.2,123h-1.8l-43.1-123h-75.6l73.8,198h85.8l73.8-198h-69.7ZM1204.1,94.1c-29.8,0-53.4,13.3-64,35.1v-29.7h-72v198.1h72v-97.3c0-29.8,9.8-49.3,34.2-49.3s29.4,14.2,29.4,41.3v105.2h72v-124.3c0-41.3-17.4-79.1-71.6-79.1ZM1753.1,134.6v-35.1h-72v198.1h72v-90.6c0-33.3,16.5-47.7,43.1-47.7s28.9,2.7,38.7,8.5v-68c-4.9-4-15.6-7.6-27.6-7.6-26.2,0-47.1,20.2-54.2,42.4ZM1846.9,99.5h72v198.1h-72V99.5Z"/>
    <circle class="st0" cx="1882.9" cy="44.9" r="40.7"/>
    <path class="st0" d="M2028.9,221.5v-72.4h51.6v-49.7h-51.6v-54.6h-43.2c0,30.2-24.5,54.6-54.7,54.6v49.7h26.7v93.2c0,46.7,31.5,60.4,64.9,60.4s44.4-6.7,59.6-17.8v-46.6c-12,4.9-21.8,6.7-30.6,6.7-14.7.1-22.7-6.6-22.7-23.5h0ZM1402,245.1s0,0,0,0h-.2c-14.6,0-22.5-6.7-22.5-23.5v-72.4h51.6v-49.8h-51.6v-54.6h-43.2c0,30.2-24.5,54.6-54.7,54.6h0v49.7h26.7v93.2c0,46.7,31.5,60.4,64.9,60.4s44.4-6.7,59.6-17.8v-46.6c-11.9,4.9-21.7,6.8-30.5,6.8h0ZM1402,245.1h0,0c0,0,0,0,0,0ZM543.9,94.2c-61.7,0-107.9,44.9-107.9,107.5s45.3,101.3,108.8,101.3,92.2-30.1,100.4-76h-59.1c-6.7,15.5-19.1,22.2-38.6,22.2s-39.5-11.5-41.3-36h139v-20c0-53.7-35.2-99-101.3-99h0ZM507,178.6c2.7-18.7,12.9-32.9,36-32.9s32.9,15.1,33.8,32.9h-69.8ZM954.1,94.2c-61.7,0-107.9,44.9-107.9,107.5s45.3,101.3,108.8,101.3,92.2-30.1,100.4-76h-59.1c-6.7,15.5-19.1,22.2-38.6,22.2s-39.5-11.5-41.3-36h139v-20c0-53.7-35.1-99-101.3-99h0ZM917.2,178.6c2.7-18.7,12.9-32.9,36-32.9s32.9,15.1,33.8,32.9h-69.8ZM2300,193.2c0-53.7-35.1-99-101.3-99s-107.9,44.9-107.9,107.5,45.3,101.3,108.8,101.3,92.2-30.1,100.4-76h-59.1c-6.7,15.5-19.1,22.2-38.6,22.2s-39.5-11.5-41.3-36h139v-20h0ZM2161.9,178.6c2.7-18.7,12.9-32.9,36-32.9s32.9,15.1,33.8,32.9h-69.8ZM1582,93.8c-33.3,0-55.6,16-65.4,39.6V17.4h-72v280.1h55.6l12.4-34.2c11.1,24,36,39.6,68,39.6,59.6,0,89.4-45.8,89.4-104.5s-29.8-104.6-88-104.6ZM1556.7,247.2c-24.5,0-40-18.7-40-47.6v-2.6c0-28.5,15.6-47.1,40-47.1s40.9,20,40.9,48.5-12.9,48.8-40.9,48.8Z"/>
  </g>
  <path class="st0" d="M302.8,269l-132.7-103.4c-2.2-1.7.1-5.1,2.5-3.7l51.8,29c23.5,13.2,53.2,5.5,67.4-17.3,15-24.1,7.1-55.8-17.5-70l-76-43.9c-2.4-1.4-.6-5.1,2-4l34.9,14c.1,0,.9.3,1.2.4,3.7,1.3,7.7,2,11.8,2,18.9,0,34.5-15,35.8-32.8,1.7-23.2-15.9-39.3-37-39.3H85.6c-20.7,0-38.2,16.9-37.9,37.6,0,11,5.1,20.8,12.8,27.5,5.8,5.1,25.4,20.7,34.7,28.2,1.7,1.3.7,4-1.4,4h-32.3c-34,.2-61.5,27.8-61.5,61.8s7,32.7,18.4,44l187.1,177.8c13.2,12.3,31,19.9,50.5,19.9,41,0,74.2-33.2,74.2-74.2-.1-23.2-10.7-44-27.4-57.6h0Z"/>
</svg>